<?xml version="1.0" encoding="UTF-8" standalone="no"?>
<!-- Created with Inkscape (http://www.inkscape.org/) -->

<svg
   xmlns:dc="http://purl.org/dc/elements/1.1/"
   xmlns:cc="http://creativecommons.org/ns#"
   xmlns:rdf="http://www.w3.org/1999/02/22-rdf-syntax-ns#"
   xmlns:svg="http://www.w3.org/2000/svg"
   xmlns="http://www.w3.org/2000/svg"
   version="1.1"
   width="800"
   height="480.00003"
   id="svg5028">
  <defs
     id="defs5030" />
  <metadata
     id="metadata5033">
    <rdf:RDF>
      <cc:Work
         rdf:about="">
        <dc:format>image/svg+xml</dc:format>
        <dc:type
           rdf:resource="http://purl.org/dc/dcmitype/StillImage" />
        <dc:title></dc:title>
      </cc:Work>
    </rdf:RDF>
  </metadata>
  <g
     transform="translate(0,-572.36218)"
     id="layer1">
    <path
       d="m 0,1052.3622 0,-480.00002 800,0 0,480.00002 -800,0"
       id="path3898"
       style="fill:#d5edf7;stroke:none" />
    <path
       d="m 0,939.86218 0,-155.9 q 5.349997,-2.7 11.949997,-2.7 6.5,0 11.9,2.65 12.7,-5.65 27.9,-5.65 l 1.3,0 q 1.4,-6.75 6.95,-11.9 7.45,-6.95 18.05,-6.95 7.6,0 13.55,3.55 2.9,-3.6 6.45,-6.9 8.300003,-7.75 18.100003,-12.1 0.55,-3 1.9,-5.65 -1.85,-3.75 -2.2,-8 l -0.1,-2 0.05,-1.05 q 0.35,-9.2 7.4,-15.75 7.5,-6.95 18.05,-6.95 l 5.55,0.55 q 4.75,-9.85 13.6,-18.05 19.1,-17.8 46.2,-17.8 15.7,0 28.75,6 5.9,-3.5 13.45,-3.5 10.6,0 18.05,6.95 6.75,6.25 7.45,14.85 l 6.75,-0.8 q 10.6,0 18.05,6.95 3.7,3.4 5.55,7.55 26.95,0.05 46.05,17.8 6.1,5.7 10.25,12.15 l 0.5,-0.5 q 7.45,-6.95 18.05,-6.95 10.6,0 18.05,6.95 5.05,4.7 6.7,10.7 l 4.5,-0.15 q 7.15,0 13.75,1.25 1.5,-6.65 6.95,-11.7 7.45,-6.95 18.05,-6.95 8.9,0 15.55,4.85 13,-11 29.55,-14.15 1.65,-6.1 6.75,-10.85 7.45,-6.95 18.05,-6.95 10.6,0 18.05,6.95 4.7,4.35 6.45,9.9 l 4.5,-0.35 q 10.55,0 18.05,6.95 7.15,6.65 7.45,15.95 l 0,0.85 0,0.55 -0.05,1.6 -0.05,0.4 0.05,0 q 5.05,-2.3 11.1,-2.3 10.6,0 18.05,6.95 l 0.75,0.75 10.2,-0.7 q 25.85,0 44.4,16.15 l 2.05,-2.2 q 7.5,-6.95 18.1,-6.95 10.6,0 18.05,6.95 4.15,3.85 6,8.65 7.45,-2.95 15.75,-4 1.45,-9.65 8.7,-16.9 5.2,-5.2 11.6,-7.4 4.8,-1.65 10.25,-1.65 12.8,0 21.85,9.05 2.2,2.2 3.9,4.65 10.55,1.05 18.35,8.85 8.75,8.75 9.05,21.05 l 0,231.15002 -0.05,0 0,-77.75002 -16.9,0 -11,19.2 -18,-5.1 -11.55,-52.1 -16.75,-9 -12.85,-75.2 -16.05,0 -21.85,93.2 -10.95,3.2 -18.35,82.95 -23.25,0 -5.35,-24.45 -8.35,-3.85 -7.7,-28.9 -25.05,0 -18.65,32.15 -12.25,0 -22.5,42.40002 -21.85,0 -7.7,-22.50002 -47.6,-23.8 -2.55,-34.7 -10.95,-4.5 -11.55,-146.55 -12.2,0 -16.75,75.2 -10.25,7.7 -9.65,52.1 -7.75,0 -23.75,86.75002 -27.65,-3.85 -22.5,-39.85002 -10.3,0 -20.55,-87.45 -36.65,0 -14.75,54.65 -10.95,0 -18,31.5 -18,-5.1 -11.55,-52.1 -16.75,-9 -12.85,-75.2 -16.05,0 -21.850003,93.2 -10.95,3.2 -18.35,82.95 -23.25,0 -5.35,-24.45 -8.35,-3.85 -7.7,-28.9 -7.699997,0"
       id="path3900"
       style="fill:#eaf5fa;stroke:none" />
    <path
       d="m 0,939.86218 7.699997,0 7.7,28.9 8.35,3.85 5.35,24.45 23.25,0 18.35,-82.95 10.95,-3.2 21.850003,-93.2 16.05,0 12.85,75.2 16.75,9 11.55,52.1 18,5.1 18,-31.5 10.95,0 14.75,-54.65 36.65,0 20.55,87.45 10.3,0 22.5,39.85002 27.65,3.85 23.75,-86.75002 7.75,0 9.65,-52.1 10.25,-7.7 16.75,-75.2 12.2,0 11.55,146.55 10.95,4.5 2.55,34.7 47.6,23.8 7.7,22.50002 21.85,0 22.5,-42.40002 12.25,0 18.65,-32.15 25.05,0 7.7,28.9 8.35,3.85 5.35,24.45 23.25,0 18.35,-82.95 10.95,-3.2 21.85,-93.2 16.05,0 12.85,75.2 16.75,9 11.55,52.1 18,5.1 11,-19.2 16.9,0 0,77.75002 0,34.7 -799.95,0 0,-112.50002"
       id="path3902"
       style="fill:#cfeaf5;stroke:none" />
  </g>
</svg>
