<?xml version="1.0" encoding="UTF-8" standalone="no"?>
<!-- Created with Inkscape (http://www.inkscape.org/) -->

<svg
   xmlns:dc="http://purl.org/dc/elements/1.1/"
   xmlns:cc="http://creativecommons.org/ns#"
   xmlns:rdf="http://www.w3.org/1999/02/22-rdf-syntax-ns#"
   xmlns:svg="http://www.w3.org/2000/svg"
   xmlns="http://www.w3.org/2000/svg"
   version="1.1"
   width="808.5"
   height="71.250023"
   id="svg6327">
  <defs
     id="defs6329" />
  <metadata
     id="metadata6332">
    <rdf:RDF>
      <cc:Work
         rdf:about="">
        <dc:format>image/svg+xml</dc:format>
        <dc:type
           rdf:resource="http://purl.org/dc/dcmitype/StillImage" />
        <dc:title></dc:title>
      </cc:Work>
    </rdf:RDF>
  </metadata>
  <g
     transform="translate(0,-981.11218)"
     id="layer1">
    <path
       d="m 0,1019.0622 0,-2.15 33.55,-2.25 7.6,7.6 49.05,3.7 43.85,-11.7 22,-24.95002 0.65,-0.5 0.8,-0.2 90.4,-3.75 0.8,0.15 60.15,23.00002 40.2,0 24.15,-14.65002 q 0.45,-0.3 1,-0.3 l 62,0 q 0.8,0 1.4,0.55 l 33.05,31.60002 38.05,0 0.75,0.15 25.05,10.3 37.6,0 25.55,-27 q 0.5,-0.55 1.25,-0.65 l 37.45,-3.65 21.15,-19.70002 q 0.55,-0.55 1.3,-0.55 l 84.45,-3 0.9,0.2 q 0.45,0.2 0.75,0.6 l 19,24.85002 44.6,10.2 0,2.05 -45.8,-10.5 -19.4,-25.40002 -84.45,3 -21.65,20.15002 -38.1,3.75 -26.15,27.65 -38.85,0 -25.4,-10.45 -38.85,0 -33.65,-32.15002 -62,0 -24.65,14.95002 -41.1,0 -60.5,-23.15002 -90.4,3.75 -22.4,25.40002 -44.8,11.95 -50.1,-3.75 -7.7,-7.7 -32.55,2.55"
       id="path3400"
       style="fill:#74982b;stroke:none" />
    <path
       d="m 808.5,1026.0622 0,26.3 -808.5,0 0,-26.2 31.75,-5.5 8.25,7.45 49.25,6 47,-15.25 17.5,-18 94.5,-7.75002 61,22.00002 44,2.5 22.5,-20.00002 57.75,1.25 36,34.75002 39.5,-2.5 27.25,11.5 38.45,-1.25 20.5,-21 45.25,-7.25 19.75,-22.00002 79,-4.75 20,25.25002 49.3,14.45 m -68.65,-18.2 1.1,9.3 6,4.35 5.85,-4.35 -5.65,-10.95 -7.3,1.65 m 13.2,19.95 8.2,1.25 4.95,-4.55 -0.75,-4.75 -9.1,0 -6,4.6 2.7,3.45 m -584.85,13.45 8.2,-1.25 2.7,-3.45 -6,-4.6 -9.1,0 -0.75,4.75 4.95,4.55 m 8.45,-14.9 5.85,4.35 6,-4.35 1.1,-9.3 -7.3,-1.65 -5.65,10.95 m -2.15,-19.05 -10.75,0 -6.75,8.75 5.8,9.8 7.85,0 6,-10.55 -2.15,-8"
       id="path3402"
       style="fill:#97714a;stroke:none" />
    <path
       d="m 808.5,1019.0122 0,7.05 -49.3,-14.45 -20,-25.25002 -79,4.75 -19.75,22.00002 -45.25,7.25 -20.5,21 -38.45,1.25 -27.25,-11.5 -39.5,2.5 -36,-34.75002 -57.75,-1.25 -22.5,20.00002 -44,-2.5 -61,-22.00002 -94.5,7.75002 -17.5,18 -47,15.25 -49.25,-6 -8.25,-7.45 -31.75,5.5 0,-7.1 32.55,-2.55 7.7,7.7 50.1,3.75 44.8,-11.95 22.4,-25.40002 90.4,-3.75 60.5,23.15002 41.1,0 24.65,-14.95002 62,0 33.65,32.15002 38.85,0 25.4,10.45 38.85,0 26.15,-27.65 38.1,-3.75 21.65,-20.15002 84.45,-3 19.4,25.40002 45.8,10.5"
       id="path3404"
       style="fill:#96c23a;stroke:none" />
    <path
       d="m 753.05,1027.8122 -2.7,-3.45 6,-4.6 9.1,0 0.75,4.75 -4.95,4.55 -8.2,-1.25 m -13.2,-19.95 7.3,-1.65 5.65,10.95 -5.85,4.35 -6,-4.35 -1.1,-9.3 m -565.35,-0.55 2.15,8 -6,10.55 -7.85,0 -5.8,-9.8 6.75,-8.75 10.75,0 m 2.15,19.05 5.65,-10.95 7.3,1.65 -1.1,9.3 -6,4.35 -5.85,-4.35 m -8.45,14.9 -4.95,-4.55 0.75,-4.75 9.1,0 6,4.6 -2.7,3.45 -8.2,1.25"
       id="path3406"
       style="fill:#a87f54;stroke:none" />
  </g>
</svg>
