<?xml version="1.0" encoding="UTF-8" standalone="no"?>
<svg
   xmlns:dc="http://purl.org/dc/elements/1.1/"
   xmlns:cc="http://creativecommons.org/ns#"
   xmlns:rdf="http://www.w3.org/1999/02/22-rdf-syntax-ns#"
   xmlns:svg="http://www.w3.org/2000/svg"
   xmlns="http://www.w3.org/2000/svg"
   version="1.1"
   id="svg5974"
   viewBox="0 0 113.5 118.5"
   height="33.443333mm"
   width="32.032223mm">
  <defs
     id="defs5976">
    <linearGradient
       id="gradient0"
       gradientTransform="matrix(0.02983093,-0.05166626,0.05163574,0.02981567,55.5,989.3622)"
       spreadMethod="pad"
       x2="819.20001"
       x1="-819.20001"
       gradientUnits="userSpaceOnUse">
      <stop
         id="stop4852"
         stop-opacity="0"
         stop-color="#FFFFFF"
         offset="0" />
      <stop
         id="stop4854"
         stop-opacity="0.2"
         stop-color="#FFFFFF"
         offset="1" />
    </linearGradient>
  </defs>
  <metadata
     id="metadata5979">
    <rdf:RDF>
      <cc:Work
         rdf:about="">
        <dc:format>image/svg+xml</dc:format>
        <dc:type
           rdf:resource="http://purl.org/dc/dcmitype/StillImage" />
        <dc:title></dc:title>
      </cc:Work>
    </rdf:RDF>
  </metadata>
  <g
     transform="translate(0,-933.8622)"
     id="layer1">
    <path
       style="fill:#ad492e;stroke:none"
       id="path4868"
       d="M 0.05,993.1622 0,990.6122 q 0,-23.5 16.6,-40.15 16.65,-16.6 40.15,-16.6 23.5,0 40.15,16.6 16.6,16.65 16.6,40.15 l -0.05,2.5 q -0.85,21.9 -16.55,37.65 -16.65,16.6 -40.15,16.6 -23.5,0 -40.15,-16.6 -15.7,-15.75 -16.55,-37.6 m 111.45,-2.55 q 0,-10.7 -3.55,-19.85 -4,-10.4 -12.45,-18.85 -16.05,-16.05 -38.75,-16.05 -22.7,0 -38.7,16.05 -8.5,8.45 -12.5,18.85 -3.55,9.2 -3.55,19.85 0,22.7 16.05,38.75 16,16 38.7,16 22.7,0 38.75,-16 16,-16.05 16,-38.75" />
    <path
       style="fill:#000000;fill-opacity:0.10196078;stroke:none"
       id="path4870"
       d="m 113.45,993.1122 0.05,2.5 q 0,23.5 -16.6,40.15 -16.65,16.6 -40.15,16.6 -23.5,0 -40.15,-16.6 Q 0,1019.1122 0,995.6122 l 0.05,-2.45 q 0.85,21.85 16.55,37.6 16.65,16.6 40.15,16.6 23.5,0 40.15,-16.6 15.7,-15.75 16.55,-37.65" />
    <path
       style="fill:#f08b6e;stroke:none"
       id="path4872"
       d="m 106.9,990.6122 q 0,-20.75 -14.7,-35.4 -14.7,-14.7 -35.45,-14.7 -20.75,0 -35.4,14.7 -14.7,14.65 -14.7,35.4 0,20.75 14.7,35.45 14.65,14.65 35.4,14.65 20.75,0 35.45,-14.65 14.7,-14.7 14.7,-35.45 m 4.6,0 q 0,22.7 -16,38.75 -16.05,16 -38.75,16 -22.7,0 -38.7,-16 Q 2,1013.3122 2,990.6122 q 0,-10.65 3.55,-19.85 4,-10.4 12.5,-18.85 16,-16.05 38.7,-16.05 22.7,0 38.75,16.05 8.45,8.45 12.45,18.85 3.55,9.15 3.55,19.85" />
    <path
       style="fill:#d76241;stroke:none"
       id="path4874"
       d="m 106.9,990.6122 q 0,20.75 -14.7,35.45 -14.7,14.65 -35.45,14.65 -20.75,0 -35.4,-14.65 -14.7,-14.7 -14.7,-35.45 0,-20.75 14.7,-35.4 14.65,-14.7 35.4,-14.7 20.75,0 35.45,14.7 14.7,14.65 14.7,35.4" />
    <path
       style="fill:#9a462e;stroke:none"
       id="path4884"
       d="m 39.85,970.8622 q -0.1,-0.95 0.2,-1.8 l 0,-0.1 q 0.4,-0.9 1.1,-1.65 1.5,-1.5 3.65,-1.5 l 27.9,0 q 2.15,0 3.7,1.5 1.5,1.5 1.5,3.65 l 0,0.5 q -0.2,1.85 -1.5,3.2 -1.6,1.6 -3.85,1.35 l -1.1,-0.1 -0.85,3.05 0.45,0.05 0.1,0 3.95,0.35 0.05,0 0.5,0.1 0.05,0 q 2.65,0.3 3.95,2.85 l 0.05,0.2 0.05,0.15 1.15,3.55 0,-5.1 q 0,-1.2 0.85,-2.05 l 0.05,-0.05 q 0.9,-0.85 2.05,-0.85 1.25,0 2.15,0.9 0.85,0.85 0.85,2.05 l 0,11.45 0.1,0.15 q 0.85,1.4 0.85,3 l 0,0.5 q -0.15,1.3 -0.85,2.55 l -0.1,0.15 0,2 0,10.5 q 0,0.95 -0.8,1.8 l -0.05,0.05 q -0.95,0.9 -2.15,0.9 -1.2,0.05 -2.1,-0.9 -0.85,-0.85 -0.85,-1.85 l 0,-3.7 0,-2 -1.1,3.25 -0.4,0.8 q -1.3,2.15 -3.6,2.7 l -0.05,0 -0.4,0.1 0,0.05 -1.5,0.25 q -0.4,2.05 -2,3.65 l -0.05,0.05 q -2.2,2.2 -5.3,2.2 -3.1,0 -5.3,-2.2 -1.55,-1.55 -2,-3.6 l -0.05,-0.2 -0.1,0 -6,-1.35 q -1.55,-0.45 -2.95,-1.1 l -1.15,1.4 q -2,2.05 -4.9,2.05 -2.9,0 -4.95,-2.05 -1.85,-1.85 -1.95,-4.4 l -0.05,-0.5 q 0,-2.9 2,-4.95 0.25,-0.25 0.5,-0.4 l 0.8,-0.6 q -2.85,-5.1 -6.7,-9.15 l -0.05,-0.05 -0.6,-0.6 -2.15,-2 -4.9,-4.45 -1.2,-2 0,-0.05 -0.55,-1.85 -0.05,0 -0.15,-0.9 q -0.2,-2.15 1,-3.55 1.05,-1.4 3.45,-2.05 l 0.05,0 q 6.65,-1.75 12.55,4.35 l 5.05,-0.15 0.5,0 -0.85,-3.25 -0.85,0.1 -0.2,0 q -2.1,-0.1 -3.6,-1.65 l 0,0.05 -0.55,-0.7 -0.15,-0.25 q -0.5,-0.95 -0.6,-1.85 m 15.55,8 2.25,0.25 4.35,-0.45 0.05,-0.05 0.2,-0.1 0.1,0 0.15,-0.1 -0.95,-3.45 -5.6,-0.2 -1.05,3.95 0.5,0.15" />
    <path
       style="fill:#f08b6e;stroke:none"
       id="path4886"
       d="m 55.4,978.8622 -0.5,-0.15 1.05,-3.95 5.6,0.2 0.95,3.45 -0.15,0.1 -0.1,0 -0.2,0.1 -0.05,0.05 -0.45,-1.7 -5.6,-0.2 -0.55,2.1 m 22.5,-7.4 0,0.5 0,0.5 0,0.5 q 0,2.15 -1.5,3.7 -1.6,1.6 -3.85,1.35 l -1.1,-0.1 -0.3,1.1 -0.1,0 -0.45,-0.05 0.85,-3.05 1.1,0.1 q 2.25,0.25 3.85,-1.35 1.3,-1.35 1.5,-3.2 m 9.9,24.75 0,0.5 0,0.5 0,0.5 q 0,1.6 -0.85,3.05 l -0.1,0.15 0,-2 0.1,-0.15 q 0.7,-1.25 0.85,-2.55 m -0.95,15.2 0,1.75 q 0,1.2 -0.8,2.05 l -0.05,0.05 q -0.95,0.9 -2.15,0.9 -1.2,0.05 -2.1,-0.9 -0.85,-0.85 -0.85,-2.1 l 0,-1.75 q 0,1 0.85,1.85 0.9,0.95 2.1,0.9 1.2,0 2.15,-0.9 l 0.05,-0.05 q 0.8,-0.85 0.8,-1.8 m -5.95,-3.7 -1.1,3.25 -0.4,0.8 q -1.3,2.15 -3.6,2.7 l -0.05,0 -0.4,0.1 0,0.05 -1.5,0.25 q -0.4,2.05 -2,3.65 l -0.05,0.05 q -2.2,2.2 -5.3,2.2 -3.1,0 -5.3,-2.2 -1.55,-1.55 -2,-3.6 l -0.05,-0.2 -0.1,0 -6,-1.35 q -1.55,-0.45 -2.95,-1.1 l -1.15,1.4 q -2,2.05 -4.9,2.05 -2.9,0 -4.95,-2.05 -2,-2 -2,-4.9 l 0.05,-0.5 -0.05,-0.5 0.05,-0.5 q 0.1,2.55 1.95,4.4 2.05,2.05 4.95,2.05 2.9,0 4.9,-2.05 l 1.15,-1.4 q 1.4,0.65 2.95,1.1 l 6,1.35 0.1,0 0.05,0.2 q 0.45,2.05 2,3.6 2.2,2.2 5.3,2.2 3.1,0 5.3,-2.2 l 0.05,-0.05 q 1.6,-1.6 2,-3.65 l 1.5,-0.25 0,-0.05 0.4,-0.1 0.05,0 q 2.3,-0.55 3.6,-2.7 l 0.4,-0.8 1.1,-3.25 0,2 m -41.3,-6.25 q -2.65,-4.3 -5.9,-7.75 l -0.05,-0.05 -0.6,-0.6 -2.15,-2 -4.9,-4.45 -1.2,-2 0,-0.05 -0.55,-1.85 -0.05,0 q -0.25,-1.1 -0.15,-2 l 0,-0.9 0.15,0.9 0.05,0 0.55,1.85 0,0.05 1.2,2 4.9,4.45 2.15,2 0.6,0.6 0.05,0.05 q 3.85,4.05 6.7,9.15 l -0.8,0.6 m 6.55,-23.05 -0.35,-1.25 -0.85,0.1 -0.2,0 q -2.1,-0.1 -3.6,-1.65 l 0,0.05 -0.55,-0.7 -0.15,-0.25 q -0.75,-1.55 -0.6,-2.85 l 0,-1 q 0.1,0.9 0.6,1.85 l 0.15,0.25 0.55,0.7 0,-0.05 q 1.5,1.55 3.6,1.65 l 0.2,0 0.85,-0.1 0.85,3.25 -0.5,0" />
    <path
       style="fill:url(#gradient0);stroke:none"
       id="path5742"
       d="m 92.2,955.2122 q 8.6,8.6 12.2,19.3 l -63.75,63.7 q -10.7,-3.55 -19.3,-12.15 -3.25,-3.25 -5.75,-6.75 l 69.85,-69.85 q 3.5,2.5 6.75,5.75 m -35.45,-14.7 q 9.4,0 17.6,3.05 l -64.65,64.65 q -3.05,-8.2 -3.05,-17.6 l 0.05,-1.4 48.65,-48.65 1.4,-0.05" />
  </g>
</svg>
