<?xml version="1.0" encoding="UTF-8" standalone="no"?>
<!-- Created with Inkscape (http://www.inkscape.org/) -->

<svg
   xmlns:dc="http://purl.org/dc/elements/1.1/"
   xmlns:cc="http://creativecommons.org/ns#"
   xmlns:rdf="http://www.w3.org/1999/02/22-rdf-syntax-ns#"
   xmlns:svg="http://www.w3.org/2000/svg"
   xmlns="http://www.w3.org/2000/svg"
   version="1.1"
   width="87.403511"
   height="72.550018"
   id="svg6087">
  <defs
     id="defs6089" />
  <metadata
     id="metadata6092">
    <rdf:RDF>
      <cc:Work
         rdf:about="">
        <dc:format>image/svg+xml</dc:format>
        <dc:type
           rdf:resource="http://purl.org/dc/dcmitype/StillImage" />
        <dc:title></dc:title>
      </cc:Work>
    </rdf:RDF>
  </metadata>
  <g
     transform="translate(0,-979.81218)"
     id="layer1">
    <path
       d="m 10.053509,1009.5622 -0.3500002,0.05 q -2.05,0.3 -3.55,-0.5 -1.6,-0.9 -1.6,-2.4 0,-0.75 0.4,-1.4 0.4,-0.7 1.2,-1.25 1.55,-1.1 3.65,-1.1 l 11.9000002,-0.05 q 1.05,0 1.75,0.7 0.65,0.65 0.6,1.65 0,1 -0.75,1.75 -0.75,0.8 -1.85,0.95 l -11.4,1.6 m 21.3,-19.05002 -2.85,0.25 q -2.1,-0.1 -3.6,-1.65 l -0.6,-0.7 q -0.95,-1.95 -0.45,-3.55 0.35,-0.85 1.05,-1.55 1.5,-1.5 3.6,-1.5 l 38.2,0 q 2.1,0 3.6,1.5 1.5,1.5 1.5,3.6 0,2.1 -1.5,3.6 -1.5,1.5 -3.6,1.3 l -3.2,-0.3 -2.3,-0.25 -0.65,-0.05 -4.5,-0.5 -3.05,-0.25 -10.8,-0.4 -3,0.05 -4.95,0.2 -2.9,0.2 m 45.8,22.95002 0.15,-0.05 0.25,0.05 0.35,0.1 0,0.1 0.35,0 1.65,0.55 0,13.15 -1.65,0.55 -0.35,0.1 0,-0.05 -0.35,0.1 -0.25,0 q 0.7,-4.75 0.4,-9.5 l -0.55,-5.1 m 6.9,3.65 q 1.35,1.7 1.35,3.65 0,2 -1.35,3.7 l 0,-7.35 m -20.7,0.9 3.35,0 q 2.1,0 3.6,1.5 1.5,1.5 1.5,3.6 0,2.1 -1.5,3.6 -1.5,1.5 -3.6,1.3 l -1.95,-0.2 -2.8,-0.25 -0.75,-0.1 -2.35,-0.25 -20.5,-0.85 -2.4,0.05 -7.45,0.55 q -2.1,-0.1 -3.6,-1.65 l -0.6,-0.7 q -0.95,-1.95 -0.45,-3.55 0.35,-0.85 1.05,-1.55 1.5,-1.5 3.6,-1.5 l 3.25,0 2.95,0 4,0 3,0 0.7,0 1.5,0 9.5,0 2.95,0 2.65,0 1.35,0 3,0"
       id="path3126"
       style="fill:#c24040;stroke:none" />
    <path
       d="m 19.053509,1036.6622 -0.3,-0.45 q -0.25,-0.5 -0.15,-1.1 l 0.15,-1 0.05,-0.05 q 0.85,-3.2 3.7,-4.85 l 0.6,-0.35 -0.45,-0.7 q -3.95,-7.15 -9.4,-12.85 l -0.05,-0.05 -0.85,-0.85 -2.9500002,-2.75 q -2.4,0.2 -4.2,-0.75 l 0,-0.05 q -2.75,-1.55 -2.65,-4.15 0,-0.55 0.15,-1.1 -0.95,-1.35 -1.6,-2.8 l 0,-0.05 -0.80000003,-2.5 -0.05,-0.05 q -0.85,-3.75002 1.15000003,-6.10002 1.45,-1.9 4.75,-2.75 l 0.05,0 q 9.1000002,-2.4 17.2000002,5.95 l 7.6,-0.25 -1.15,-4.4 -1.15,0.1 -0.3,0 q -2.9,-0.15 -4.9,-2.25 l 0,0.05 -0.8,-0.95 -0.2,-0.3 q -1.35,-2.8 -0.55,-5.05 l 0.05,-0.15 q 0.5,-1.2 1.5,-2.2 2.05,-2.1 5,-2.1 l 38.2,0 q 2.95,0 5.05,2.1 2.05,2.05 2.05,5 0,2.95 -2.05,5.05 -2.2,2.15 -5.25,1.85 l -1.55,-0.15 -1.1,4.2 -2.05,-0.1 1.7,-6.25 3.2,0.3 q 2.1,0.2 3.6,-1.3 1.5,-1.5 1.5,-3.6 0,-2.1 -1.5,-3.6 -1.5,-1.5 -3.6,-1.5 l -38.2,0 q -2.1,0 -3.6,1.5 -0.7,0.7 -1.05,1.55 -0.5,1.6 0.45,3.55 l 0.6,0.7 q 1.5,1.55 3.6,1.65 l 2.85,-0.25 2.25,8.5 -11.05,0.35 q -7.45,-8.15 -15.9000002,-6.05 -2.55,0.65 -3.7,2.05 -1.35,1.7 -0.75,4.4 l 0.75,2.25002 q 0.75,1.75 2,3.3 -0.4,0.65 -0.4,1.4 0,1.5 1.6,2.4 1.5,0.8 3.55,0.5 l 0.3500002,-0.05 3.7,3.4 0.9,0.9 q 5.65,5.9 9.75,13.3 l 1.85,2.95 q -1.45,0 -2.75,0.8 -2.15,1.25 -2.8,3.65 l -0.15,0.8 0.15,0 0.55,0.55 -2.2,0.75 m 28.95,7.5 q -4.05,-0.7 -8.2,-1.9 -3.35,-0.95 -6.2,-2.6 l -0.75,-0.45 -0.05,0 -0.15,1 -1.7,-1.65 0.9,-0.2 0.15,0.05 0.25,-0.75 0.2,-1.15 q 3.55,2.55 7.9,3.8 l 7.65,1.8 0,2.05"
       id="path3128"
       style="fill:#a63333;stroke:none" />
    <path
       d="m 21.253509,1035.9122 -0.55,-0.55 -0.15,0 0.15,-0.8 q 0.65,-2.4 2.8,-3.65 1.3,-0.8 2.75,-0.8 l -1.85,-2.95 q -4.1,-7.4 -9.75,-13.3 l 17.85,1.35 -0.75,2.8 -3.25,0 q -2.1,0 -3.6,1.5 -0.7,0.7 -1.05,1.55 -0.5,1.6 0.45,3.55 l 0.6,0.7 q 1.5,1.55 3.6,1.65 l 7.45,-0.55 -4.65,6.15 0.35,0.5 0.75,2.15 5.95,-8.85 20.5,0.85 -0.65,6.6 q -3.4,0 -5.85,2.4 -2.4,2.45 -2.4,5.85 l 0,0.35 -1.95,-0.3 -7.65,-1.8 q -4.35,-1.25 -7.9,-3.8 l -0.2,1.15 -0.25,0.75 -0.15,-0.05 -0.9,0.2 -0.8,0 -2.35,-0.2 -1.8,-0.45 -2,-0.6 -2,-0.9 -0.75,-0.5 m -7.5,-22.95 -3.7,-3.4 11.4,-1.6 q 1.1,-0.15 1.85,-0.95 0.75,-0.75 0.75,-1.75 0.05,-1 -0.6,-1.65 -0.7,-0.7 -1.75,-0.7 l -11.9000002,0.05 q -2.1,0 -3.65,1.1 -0.8,0.55 -1.2,1.25 -1.25,-1.55 -2,-3.3 l -0.75,-2.25002 q -0.6,-2.7 0.75,-4.4 1.15,-1.4 3.7,-2.05 8.4500002,-2.1 15.9000002,6.05 l 11.05,-0.35 1.6,6.00002 -2.45,9.2 -19,-1.25 m 25,-9.9 q 3.05,1.15 7.05,1.35 5.25,0.25 9,-1.3 l 1.4,-0.6 0.65,2.5 -2.85,10.65 -13.2,-0.9 -2.6,-9.75 0.55,-1.95 m 20.25,14.95 -2.65,0 0.3,-1 2.3,0.15 0.05,0.85 m -5.6,0 -9.5,0 1.2,-1.85 8.6,0.65 -0.3,1.2 m -11,0 -0.7,0 -0.6,-2.15 2.75,0.2 -1.45,1.95 m -3.7,0 -4,0 0.7,-2.55 2.65,0.2 0.65,2.35 m 18.25,-2.15 1.4,-5.3 0.15,0.6 0.4,4.8 -1.95,-0.1 m -19.15,-1.3 -2.15,-0.15 1.05,-3.85 1.1,4 m -0.25,18.45 q -0.7,0 -1.25,0.55 -0.5,0.45 -0.5,1.15 l -0.05,0.1 q 0,0.7 0.45,1.2 l 0.1,0.1 q 0.55,0.55 1.25,0.55 0.7,0 1.2,-0.5 l 0.1,-0.05 q 0.5,-0.55 0.5,-1.3 0,-0.75 -0.5,-1.25 -0.5,-0.55 -1.3,-0.55"
       id="path3130"
       style="fill:#d24343;stroke:none" />
    <path
       d="m 37.553509,1033.0122 q 0.8,0 1.3,0.55 0.5,0.5 0.5,1.25 0,0.75 -0.5,1.3 l -0.1,0.05 q -0.5,0.5 -1.2,0.5 -0.7,0 -1.25,-0.55 l -0.1,-0.1 q -0.45,-0.5 -0.45,-1.2 l 0.05,-0.1 q 0,-0.7 0.5,-1.15 0.55,-0.55 1.25,-0.55 m -22.9,-19.15 -0.9,-0.9 19,1.25 -0.25,1 -17.85,-1.35 m 29.25,4.15 -1.5,0 1.45,-1.95 -2.75,-0.2 -0.3,-1.1 13.2,0.9 -0.3,1.15 -8.6,-0.65 -1.2,1.85 m -7.95,8.4 2.4,-0.05 -5.95,8.85 -0.75,-2.15 -0.35,-0.5 4.65,-6.15 m 21,-10.55 1.95,0.1 0.05,1.2 -2.3,-0.15 0.3,-1.15 m -18.9,-0.2 -2.65,-0.2 0.25,-1.05 2.15,0.15 0.25,1.1"
       id="path3132"
       style="fill:#e94f4f;stroke:none" />
    <path
       d="m 30.953509,1038.5622 q -0.35,1.4 -1.4,2.5 -1.45,1.5 -3.55,1.5 -2.1,0 -3.55,-1.5 -1.45,-1.45 -1.45,-3.55 0,-0.85 0.25,-1.6 l 0.75,0.5 2,0.9 0,0.2 q 0,0.8 0.55,1.45 0.6,0.6 1.45,0.6 0.85,0 1.4,-0.6 l 0.4,-0.6 2.35,0.2 0.8,0 m 27.25,-4.75 q 3.45,0 5.85,2.4 2.45,2.45 2.45,5.85 l 0,0.45 q -0.15,3.15 -2.45,5.4 -2.4,2.45 -5.85,2.45 -3.4,0 -5.85,-2.45 -2.3,-2.3 -2.4,-5.5 l 0,-0.35 q 0,-3.4 2.4,-5.85 2.45,-2.4 5.85,-2.4 m -18.35,-35.00002 q 2.65,1.1 6.15,1.25002 4.15,0.2 7.15,-1.00002 l 1.2,-0.55 q 0.35,-0.2 0.7,-0.25 l 1.15,4.25002 -1.4,0.6 q -3.75,1.55 -9,1.3 -4,-0.2 -7.05,-1.35 l 1.1,-4.25002 m 19.8,42.50002 -0.25,-0.4 q -0.5,-0.5 -1.2,-0.5 -0.65,0 -1.15,0.5 l -0.1,0.15 -0.15,0.2 q -0.25,0.35 -0.25,0.8 l 0.05,0.4 0,0.05 0.25,0.5 0.2,0.25 q 0.5,0.45 1.15,0.45 0.7,0 1.2,-0.45 l 0.2,-0.2 0.2,-0.6 0.05,-0.4 -0.2,-0.75"
       id="path3134"
       style="fill:#3d3d3d;stroke:none" />
    <path
       d="m 68.303509,1044.2122 0,0.05 q -0.6,2.85 -2.8,5.05 l -0.05,0.05 q -3,3 -7.25,3 -4.25,0 -7.25,-3 -2.15,-2.15 -2.75,-4.95 l -0.05,-0.25 -0.15,0 0,-2.05 1.95,0.3 q 0.1,3.2 2.4,5.5 2.45,2.45 5.85,2.45 3.45,0 5.85,-2.45 2.3,-2.25 2.45,-5.4 l 2.05,-0.3 -0.25,2 m -35.65,-4 -0.15,0.1 -0.05,0.05 -1.45,2.1 q -2.05,2.1 -5,2.1 -2.95,0 -4.95,-2.05 l -0.05,-0.05 q -2,-2.05 -2,-4.95 l 0.05,-0.85 2.2,-0.75 q -0.25,0.75 -0.25,1.6 0,2.1 1.45,3.55 1.45,1.5 3.55,1.5 2.1,0 3.55,-1.5 1.05,-1.1 1.4,-2.5 l 1.7,1.65"
       id="path3136"
       style="fill:#1c1c1c;stroke:none" />
    <path
       d="m 63.853509,997.86218 0.6,0.05 5.5,0.45 0.1,0.05 0.7,0.1 0.05,0 q 2.55,0.3 4.2,2.20002 l 1.2,1.75 0.1,0.25 0.05,0.2 0.7,2.05 0.85,2.8 0,5.7 q 0.05,-1.65 1.2,-2.75 l 0.05,-0.05 q 1.25,-1.15 2.85,-1.15 1.7,0 2.9,1.2 1.15,1.15 1.15,2.85 l 0,2.9 q 1.35,2 1.35,4.3 0,2.35 -1.35,4.4 l 0,2.95 q 0,1.7 -1.15,2.9 l 0.05,-0.1 q -1.25,1.3 -2.95,1.3 -1.65,0.05 -2.9,-1.2 -1.15,-1.15 -1.2,-2.8 l 0,6.25 -1.1,3.35 -0.4,1.1 q -0.05,0.5 -0.5,1.05 l -0.9,1.25 q -1.6,1.9 -4.05,2.5 l -0.1,0 -0.5,0.1 0,0.05 -2.05,0.35 0.25,-2 0,-0.05 1.4,-0.3 0.5,-0.1 q 2.5,-0.65 3.9,-3.1 l 0.05,-0.1 0.6,-1.6 q 1.6,-4.4 2.3,-8.9 l 0.25,0 0.35,-0.1 0,0.05 0.35,-0.1 1.65,-0.55 0,0.75 q 0,0.85 0.6,1.45 0.65,0.65 1.5,0.65 0.85,0 1.45,-0.65 0.6,-0.6 0.6,-1.45 l 0,-3.65 q 1.35,-1.7 1.35,-3.7 0,-1.95 -1.35,-3.65 l 0,-3.55 q 0,-0.85 -0.6,-1.45 -0.6,-0.6 -1.45,-0.6 -0.85,0 -1.5,0.6 -0.6,0.6 -0.6,1.45 l 0,0.65 -1.65,-0.55 -0.35,0 0,-0.1 -0.35,-0.1 -0.25,-0.05 -0.15,0.05 q -0.7,-4.15 -2.15,-8.35 l -0.6,-1.7 0,-0.05 q -1.3,-2.55 -3.9,-2.9 l -0.75,-0.1 -8.45,-0.65002 0.5,-1.95 2.05,0.1"
       id="path3138"
       style="fill:#8a8b98;stroke:none" />
    <path
       d="m 65.003509,1004.9622 q 0,-0.75 -0.5,-1.3 -0.55,-0.5 -1.3,-0.5 -0.75,0 -1.25,0.5 -0.55,0.55 -0.55,1.3 0,0.75 0.55,1.25 0.5,0.55 1.25,0.55 0.75,0 1.3,-0.55 0.5,-0.5 0.5,-1.25 m -3.7,-5.25002 8.45,0.65002 0.75,0.1 q 2.6,0.35 3.9,2.9 l 0,0.05 0.6,1.7 q 1.45,4.2 2.15,8.35 l 0.55,5.1 q 0.3,4.75 -0.4,9.5 -0.7,4.5 -2.3,8.9 l -0.6,1.6 -0.05,0.1 q -1.4,2.45 -3.9,3.1 l -0.5,0.1 -1.4,0.3 0,0.05 -2.05,0.3 0,-0.45 q 0,-3.4 -2.45,-5.85 -2.4,-2.4 -5.85,-2.4 l 0.65,-6.6 2.35,0.25 0.75,0.1 q -0.55,0.45 -0.55,1.25 0,0.7 0.55,1.25 0.5,0.55 1.25,0.55 0.75,0 1.3,-0.55 0.5,-0.55 0.5,-1.25 l -0.25,-1 1.95,0.2 q 2.1,0.2 3.6,-1.3 1.5,-1.5 1.5,-3.6 0,-2.1 -1.5,-3.6 -1.5,-1.5 -3.6,-1.5 l -3.35,0 -3.5,-13 1.45,-5.30002"
       id="path3140"
       style="fill:#b2b4c2;stroke:none" />
    <path
       d="m 65.003509,1004.9622 q 0,0.75 -0.5,1.25 -0.55,0.55 -1.3,0.55 -0.75,0 -1.25,-0.55 -0.55,-0.5 -0.55,-1.25 0,-0.75 0.55,-1.3 0.5,-0.5 1.25,-0.5 0.75,0 1.3,0.5 0.5,0.55 0.5,1.3 m -0.25,22.85 0.25,1 q 0,0.7 -0.5,1.25 -0.55,0.55 -1.3,0.55 -0.75,0 -1.25,-0.55 -0.55,-0.55 -0.55,-1.25 0,-0.8 0.55,-1.25 l 2.8,0.25"
       id="path3142"
       style="fill:#9698a6;stroke:none" />
    <path
       d="m 82.903509,1012.7622 0.35,0.8 0,7.35 -2.4,0 0,-7.35 q 0.05,-0.45 0.35,-0.75 0.4,-0.35 0.85,-0.35 0.5,-0.05 0.85,0.3"
       id="path3144"
       style="fill:#dfe1ee;stroke:none" />
    <path
       d="m 82.903509,1012.7622 q -0.35,-0.35 -0.85,-0.3 -0.45,0 -0.85,0.35 -0.3,0.3 -0.35,0.75 l 0,7.35 2.4,0 0,-7.35 -0.35,-0.8 m -49.3,-13.75002 -2.25,-8.5 2.9,-0.2 2.45,9.1 2.5,-9.3 3,-0.05 -2.35,8.75 -1.1,4.25002 -0.55,1.95 2.6,9.75 0.3,1.1 0.6,2.15 -3,0 -0.65,-2.35 -0.25,-1.1 -1.1,-4 -1.05,3.85 -0.25,1.05 -0.7,2.55 -2.95,0 0.75,-2.8 0.25,-1 2.45,-9.2 -1.6,-6.00002 m 29.9,-7.5 -1.7,6.25 -0.5,1.95 -1.45,5.30002 3.5,13 -3,0 -1.85,-6.85 -0.15,-0.6 -1.4,5.3 -0.3,1.15 -0.3,1 -2.95,0 0.3,-1.2 0.3,-1.15 2.85,-10.65 -0.65,-2.5 -1.15,-4.25002 -2.05,-7.8 3.05,0.25 2.3,8.7 2.2,-8.2 0.65,0.05 2.3,0.25 m 16.4,22.70002 0,-0.65 q 0,-0.85 0.6,-1.45 0.65,-0.6 1.5,-0.6 0.85,0 1.45,0.6 0.6,0.6 0.6,1.45 l 0,3.55 0,7.35 0,3.65 q 0,0.85 -0.6,1.45 -0.6,0.65 -1.45,0.65 -0.85,0 -1.5,-0.65 -0.6,-0.6 -0.6,-1.45 l 0,-0.75 0,-13.15"
       id="path3146"
       style="fill:#d0d3e5;stroke:none" />
    <path
       d="m 55.053509,998.26218 q -0.35,0.05 -0.7,0.25 l -1.2,0.55 q -3,1.20002 -7.15,1.00002 -3.5,-0.15002 -6.15,-1.25002 l 2.35,-8.75 10.8,0.4 2.05,7.8 m 1,-7.55 4.5,0.5 -2.2,8.2 -2.3,-8.7 m -3.95,6.65 0.3,-0.15 0.1,0 0.2,-0.1 -1.25,-4.75 -7.7,-0.3 -1.45,5.45 3.8,0.55 q 3.45,0.15 6,-0.7 m -17.85,-7.05 4.95,-0.2 -2.5,9.3 -2.45,-9.1"
       id="path3148"
       style="fill:#b1b4c9;stroke:none" />
    <path
       d="m 60.353509,1018.0122 -1.35,0 -0.05,-0.85 -0.05,-1.2 -0.4,-4.8 1.85,6.85"
       id="path3150"
       style="fill:#989aa7;stroke:none" />
    <path
       d="m 27.803509,1038.3622 -0.4,0.6 q -0.55,0.6 -1.4,0.6 -0.85,0 -1.45,-0.6 -0.55,-0.65 -0.55,-1.45 l 0,-0.2 2,0.6 1.8,0.45 m 31.85,2.95 0.2,0.75 -0.05,0.4 -0.2,0.6 -0.2,0.2 q -0.5,0.45 -1.2,0.45 -0.65,0 -1.15,-0.45 l -0.2,-0.25 -0.25,-0.5 0,-0.05 -0.05,-0.4 q 0,-0.45 0.25,-0.8 l 0.15,-0.2 0.1,-0.15 q 0.5,-0.5 1.15,-0.5 0.7,0 1.2,0.5 l 0.25,0.4"
       id="path3152"
       style="fill:#f4f4f4;stroke:none" />
  </g>
</svg>
