<?xml version="1.0" encoding="UTF-8" standalone="no"?>
<!-- Created with Inkscape (http://www.inkscape.org/) -->

<svg
   xmlns:dc="http://purl.org/dc/elements/1.1/"
   xmlns:cc="http://creativecommons.org/ns#"
   xmlns:rdf="http://www.w3.org/1999/02/22-rdf-syntax-ns#"
   xmlns:svg="http://www.w3.org/2000/svg"
   xmlns="http://www.w3.org/2000/svg"
   version="1.1"
   width="107.98889"
   height="238.40002"
   id="svg6782">
  <defs
     id="defs6784" />
  <metadata
     id="metadata6787">
    <rdf:RDF>
      <cc:Work
         rdf:about="">
        <dc:format>image/svg+xml</dc:format>
        <dc:type
           rdf:resource="http://purl.org/dc/dcmitype/StillImage" />
        <dc:title></dc:title>
      </cc:Work>
    </rdf:RDF>
  </metadata>
  <g
     transform="translate(0,-813.96218)"
     id="layer1">
    <path
       d="m 51.038889,865.81218 10.4,-50.25 q 0.15,-0.7 0.7,-1.15 0.55,-0.45 1.25,-0.45 l 5.15,0 q 0.75,0 1.35,0.5 0.55,0.5 0.65,1.3 l 1.85,16.55 -1.85,1.35 -2,-17.7 -5.15,0 -9.95,48.15 -2.4,1.7 m 30.8,50.4 3.35,0 q 0.75,0 1.35,0.5 0.55,0.5 0.65,1.3 l 3.85,33.5 -2.3,-2.6 -3.55,-30.7 -5.15,0 -0.05,-0.45 1.85,-1.55 m 13.3,71.05 4.55,3.5 q 0.650001,0.5 0.750001,1.3 l 3.4,26.20002 -2.2,-1.35 -3.200001,-24.60002 -5.2,-4 1.9,-1.05 m -78.8,1.6 11.8,-44.15 q 0.1,-0.6 0.55,-0.95 l 7.75,-7 1.8,1.05 -8.2,7.4 -10.5,39.3 -3.2,4.35"
       id="path3482"
       style="fill:#74982b;stroke:none" />
    <path
       d="m 16.338889,988.86218 3.2,-4.35 -2.8,10.55 -14.7500001,55.30002 104.0000011,0 -2.85,-22 -1.5,-11.45 2.2,1.35 4.15,31.85 -0.2,1.1 -0.7,0.85 -1.1,0.3 -104.0000011,0 q -0.65,0 -1.15000001,-0.35 -0.5,-0.35 -0.7,-0.95 -0.25,-0.6 -0.05,-1.2 L 16.338889,988.86218 m 56.05,-156.55 9.45,83.9 -1.85,1.55 -9.45,-84.1 1.85,-1.35 m 18.65,119.2 4.1,35.75 -1.9,1.05 -3.1,-27.25 -1.4,-12.15 2.3,2.6 m -54.6,-14.75 14.6,-70.95 2.4,-1.7 -5.5,26.7 -9.7,47 -1.8,-1.05"
       id="path3484"
       style="fill:#725639;stroke:none" />
    <path
       d="m 53.438889,864.11218 9.95,-48.15 5.15,0 2,17.7 -5.35,3.9 -3.25,20.5 -3.15,2.25 -5.35,3.8 m -15.2,73.7 -2.2,13.1 -6.35,5.65 -5.25,21.25 -4.9,6.7 10.5,-39.3 8.2,-7.4 m 55.5,57.25 -0.5,-6.75 5.2,4 3.200001,24.60002 -2.200001,-1.35 -1.25,-15.5 -4.45,-5.00002 m -13.3,-69 -0.45,-8.3 0.05,0.45 5.15,0 3.55,30.7 -2.55,-2.85 -2,-16.75 -3.75,-3.25"
       id="path3486"
       style="fill:#96c23a;stroke:none" />
    <path
       d="m 80.438889,926.06218 1.4,24.8 8.3,10.2 3.1,27.25 0.5,6.75 1.6,22.05002 7.800001,11.25 2.85,22 -104.0000011,0 14.7500001,-55.30002 14.1,-12.95 5.2,-31.2 2.2,-13.1 9.7,-47 6.65,-8.2 4.2,-22.3 3.15,-2.25 3.25,-20.5 5.35,-3.9 9.45,84.1 0.45,8.3"
       id="path3488"
       style="fill:#97714a;stroke:none" />
    <path
       d="m 80.438889,926.06218 3.75,3.25 2,16.75 2.55,2.85 1.4,12.15 -8.3,-10.2 -1.4,-24.8 m -21.65,-65.75 -4.2,22.3 -6.65,8.2 5.5,-26.7 5.35,-3.8 m -22.75,90.6 -5.2,31.2 -14.1,12.95 2.8,-10.55 4.9,-6.7 5.25,-21.25 6.35,-5.65 m 67.100001,77.45002 -7.800001,-11.25 -1.6,-22.05002 4.45,5.00002 1.25,15.5 2.200001,1.35 1.5,11.45"
       id="path3490"
       style="fill:#a87f54;stroke:none" />
  </g>
</svg>
