<?xml version="1.0" encoding="UTF-8" standalone="no"?>
<!-- Created with Inkscape (http://www.inkscape.org/) -->

<svg
   xmlns:dc="http://purl.org/dc/elements/1.1/"
   xmlns:cc="http://creativecommons.org/ns#"
   xmlns:rdf="http://www.w3.org/1999/02/22-rdf-syntax-ns#"
   xmlns:svg="http://www.w3.org/2000/svg"
   xmlns="http://www.w3.org/2000/svg"
   version="1.1"
   width="107.98889"
   height="238.40002"
   id="svg7001">
  <defs
     id="defs7003" />
  <metadata
     id="metadata7006">
    <rdf:RDF>
      <cc:Work
         rdf:about="">
        <dc:format>image/svg+xml</dc:format>
        <dc:type
           rdf:resource="http://purl.org/dc/dcmitype/StillImage" />
        <dc:title></dc:title>
      </cc:Work>
    </rdf:RDF>
  </metadata>
  <g
     transform="translate(0,-813.96218)"
     id="layer1">
    <path
       d="m 16.338889,877.46218 -16.25000011,-61 q -0.2,-0.6 0.05,-1.2 0.2,-0.6 0.7,-0.95 0.50000001,-0.35 1.15000001,-0.35 l 104.0000011,0 1.1,0.3 0.7,0.85 0.2,1.1 -4.15,31.85 -2.2,1.35 1.5,-11.45 2.85,-22 -104.0000011,0 14.7500001,55.3 2.8,10.55 -3.2,-4.35 m 78.8,1.6 -4.1,35.75 -2.3,2.6 1.4,-12.15 3.1,-27.25 1.9,1.05 m -13.3,71.05 -9.45,83.90002 -1.85,-1.35 9.45,-84.10002 1.85,1.55 m -30.8,50.40002 -14.6,-70.95002 1.8,-1.05 9.7,47 5.5,26.70002 -2.4,-1.7"
       id="path3516"
       style="fill:#725639;stroke:none" />
    <path
       d="m 19.538889,881.81218 4.9,6.7 5.25,21.25 6.35,5.65 2.2,13.1 -8.2,-7.4 -10.5,-39.3 m 39.25,124.20002 3.15,2.25 3.25,20.5 5.35,3.9 -2,17.7 -5.15,0 -9.95,-48.15 5.35,3.8 m 21.2,-57.45002 0.45,-8.3 3.75,-3.25 2,-16.75 2.55,-2.85 -3.55,30.7 -5.15,0 -0.05,0.45 m 13.25,-70.55 0.5,-6.75 4.45,-5 1.25,-15.5 2.200001,-1.35 -3.200001,24.6 -5.2,4"
       id="path3518"
       style="fill:#96c23a;stroke:none" />
    <path
       d="m 19.538889,881.81218 -2.8,-10.55 14.1,12.95 5.2,31.2 -6.35,-5.65 -5.25,-21.25 -4.9,-6.7 m 83.600001,-43.85 -1.5,11.45 -2.200001,1.35 -1.25,15.5 -4.45,5 1.6,-22.05 7.800001,-11.25 m -55.200001,137.55 6.65,8.2 4.2,22.30002 -5.35,-3.8 -5.5,-26.70002 m 32.5,-35.25 1.4,-24.8 8.3,-10.2 -1.4,12.15 -2.55,2.85 -2,16.75 -3.75,3.25"
       id="path3520"
       style="fill:#a87f54;stroke:none" />
    <path
       d="m 80.438889,940.26218 -0.45,8.3 -9.45,84.10002 -5.35,-3.9 -3.25,-20.5 -3.15,-2.25 -4.2,-22.30002 -6.65,-8.2 -9.7,-47 -2.2,-13.1 -5.2,-31.2 -14.1,-12.95 -14.7500001,-55.3 104.0000011,0 -2.85,22 -7.800001,11.25 -1.6,22.05 -0.5,6.75 -3.1,27.25 -8.3,10.2 -1.4,24.8"
       id="path3522"
       style="fill:#97714a;stroke:none" />
    <path
       d="m 16.338889,877.46218 3.2,4.35 10.5,39.3 8.2,7.4 -1.8,1.05 -7.75,-7 q -0.45,-0.35 -0.55,-0.95 l -11.8,-44.15 m 85.300001,-28.05 2.2,-1.35 -3.4,26.2 q -0.1,0.8 -0.750001,1.3 l -4.55,3.5 -1.9,-1.05 5.2,-4 3.200001,-24.6 m -10.600001,65.4 -3.85,33.5 q -0.1,0.8 -0.65,1.3 -0.6,0.5 -1.35,0.5 l -3.35,0 -1.85,-1.55 0.05,-0.45 5.15,0 3.55,-30.7 2.3,-2.6 m -18.65,119.20002 -1.85,16.55 q -0.1,0.8 -0.65,1.3 -0.6,0.5 -1.35,0.5 l -5.15,0 -1.25,-0.45 q -0.55,-0.45 -0.7,-1.15 l -10.4,-50.25 2.4,1.7 9.95,48.15 5.15,0 2,-17.7 1.85,1.35"
       id="path3524"
       style="fill:#74982b;stroke:none" />
  </g>
</svg>
